<svg xmlns="http://www.w3.org/2000/svg" width="26" height="25" viewBox="0 0 26 25" fill="none"><path d="M24.847 19.282c.304-.426.487-.912.487-1.46V7.664A2.518 2.518 0 0 0 22.81 5.14H10.705l2.524 2.524h1.947v1.947l2.524 2.524v-.7h2.555v-3.77h2.524v6.325h-3.224l1.278 1.278h1.946v1.946l2.068 2.068zm-5.87-9.063h-2.524V7.695h2.525v2.524zM.365 1.612L3.893 5.14H2.524A2.518 2.518 0 0 0 0 7.664v10.128a2.518 2.518 0 0 0 2.524 2.524H19.1L23.783 25l1.612-1.612L1.977 0 .365 1.612zm2.16 6.052h1.277v2.525H2.524V7.664zm3.801 10.158H2.524v-2.524h3.802v2.524zm10.25 0H7.572v-2.524h6.448l2.554 2.524zm-6.448-6.356h.091l2.433 2.433v.122h-2.524v-2.555zM8.85 10.097l.122.122H8.85v-.122zm0 3.924H6.326v-2.525H8.85v2.525zM5.05 7.664h1.368L7.573 8.82v1.369H5.049V7.664zm0 6.357H2.524v-2.525H5.05v2.525z" fill="#000"></path></svg>