<svg xmlns="http://www.w3.org/2000/svg" width="28" height="25" viewBox="0 0 28 25" fill="none"><path d="M15.416.106a1.077 1.077 0 0 0-1.139.13L6.285 6.658h-5.21C.483 6.657 0 7.139 0 7.733v9.534c0 .595.482 1.076 1.076 1.076h5.209l7.992 6.42a1.073 1.073 0 0 0 1.139.131c.373-.179.61-.556.61-.97V1.076c0-.414-.237-.792-.61-.97zm-1.54 21.574l-6.538-5.252a1.076 1.076 0 0 0-.674-.237H2.152V8.81h4.512c.245 0 .482-.084.674-.237l6.537-5.252v18.36zM18.919 5.827c-.5.32-.646.985-.326 1.486 1.095 1.71 1.65 3.52 1.65 5.378 0 1.859-.554 3.668-1.65 5.379a1.075 1.075 0 1 0 1.812 1.16c1.32-2.063 1.99-4.263 1.99-6.539s-.67-4.476-1.99-6.539c-.32-.5-.986-.646-1.486-.325zM23.763 4.337c-.501.32-.647.986-.326 1.486 1.396 2.181 2.105 4.492 2.105 6.868 0 2.375-.709 4.686-2.105 6.867a1.075 1.075 0 1 0 1.812 1.16c1.622-2.533 2.444-5.234 2.444-8.027 0-2.794-.822-5.495-2.444-8.029-.32-.5-.986-.646-1.486-.325z" fill="#000"></path></svg>