<svg xmlns="http://www.w3.org/2000/svg" width="29" height="25" viewBox="0 0 29 25" fill="none"><path d="M8.15 8.608a2.267 2.267 0 0 0 2.29-2.29A2.267 2.267 0 0 0 8.15 4.03a2.296 2.296 0 0 0-2.29 2.29c0 1.236 1.053 2.29 2.29 2.29zM19.322 12.317c-1.236.595-2.244 1.557-2.976 2.747H8.24c-.183 0-.412.046-.64 0H3.478v-.504a2.15 2.15 0 0 1 2.153-2.152h3.663c.503-.686.87-1.236.915-1.282.32-.457.687-.686 1.145-.686.641 0 .961.686 1.465.961.641.367 1.1-.137 1.374-.64.229-.321.458-.688.64-1.054.138-.183.276-.412.367-.641.137-.229.32-.504.458-.733l.32-.503c.046-.046.046-.092.092-.092.137-.183.229-.275.366-.275.092 0 .23.092.32.275.87 1.511 1.695 3.068 2.565 4.579z" fill="#000"></path><path d="M0 0v19.093h15.293v-.412c0-.412.046-.824.137-1.236H1.648V1.648h20.834v9.89h.091c.55 0 1.053.046 1.557.184V0H0z" fill="#000"></path><path d="M22.527 12.5c-3.388 0-6.227 2.793-6.273 6.136C16.21 22.16 18.91 24.953 22.39 25h.092c1.694 0 3.25-.641 4.395-1.786a6.167 6.167 0 0 0 1.832-4.395c.046-3.48-2.702-6.273-6.182-6.319zm-.64 10.989c-1.97-.32-3.297-1.42-3.938-3.297-.504-1.465-.275-2.93.686-4.258l6.685 6.685c-1.007.778-2.197 1.053-3.434.87zm4.486-1.877l-6.684-6.685c1.098-.824 2.289-1.1 3.571-.87 1.923.32 3.205 1.42 3.8 3.25.504 1.466.275 2.931-.686 4.305z" fill="#000"></path></svg>