<svg xmlns="http://www.w3.org/2000/svg" width="23" height="25" viewBox="0 0 23 25" fill="none"><path fill-rule="evenodd" clip-rule="evenodd" d="M12.777 1.123v11.542c0 1.498-2.555 1.498-2.555 0V1.123c0-1.497 2.555-1.497 2.555 0z" fill="#000"></path><path fill-rule="evenodd" clip-rule="evenodd" d="M20.442 13.546c0-3.788-2.203-6.872-5.551-8.282-1.322-.528-.44-2.995.97-2.379 4.316 1.85 7.136 5.815 7.136 10.661C22.997 19.89 17.887 25 11.455 25 5.11 25-.087 19.802 0 13.458c0-4.846 2.908-8.81 7.137-10.573 1.497-.616 2.379 1.85.969 2.38-3.26 1.409-5.55 4.493-5.55 8.281 0 4.934 4.052 8.899 8.986 8.899 4.846 0 8.899-3.965 8.899-8.899z" fill="#000"></path></svg>