<svg xmlns="http://www.w3.org/2000/svg" width="24" height="25" viewBox="0 0 24 25" fill="none"><path d="M10.666.399L6.294.004C5.82-.05 5.452.478 5.69.899l.605 1.212C2.554 4.086 0 8.01 0 12.513c0 5.294 3.503 9.77 8.322 11.246.606.184 1.238-.29 1.238-.922 0-.422-.29-.79-.685-.922-4.03-1.238-6.952-4.977-6.952-9.402a9.828 9.828 0 0 1 5.24-8.69l.632 1.237c.211.448.843.448 1.08.053l2.265-3.74A.65.65 0 0 0 10.666.4zM23.492 12.513c0-5.293-3.503-9.77-8.322-11.245-.606-.185-1.238.29-1.238.922 0 .42.29.79.684.921 4.03 1.238 6.953 4.978 6.953 9.402a9.828 9.828 0 0 1-5.24 8.691l-.633-1.238c-.21-.448-.842-.448-1.08-.053l-2.264 3.74a.633.633 0 0 0 .474.948l4.345.395c.474.053.843-.474.606-.895l-.606-1.211a11.676 11.676 0 0 0 6.32-10.377z" fill="#000"></path></svg>