<svg xmlns="http://www.w3.org/2000/svg" width="27" height="21" viewBox="0 0 27 21" fill="none"><path fill-rule="evenodd" clip-rule="evenodd" d="M22.299 2.31c-3.549 2.1-3.983 2.028-7.604-.073-.797-.434-1.738-.434-2.535.073-2.027 1.159-3.62 2.245-5.938.869-2.318-1.304-2.607-1.81-5.07-.362C.573 3.179-.44 1.586.211 1.224 3.325-.66 4.12-.225 7.163 1.586c1.521.869 2.752-.145 4.056-.942a4.382 4.382 0 0 1 4.417 0c2.97 1.666 2.825 1.738 5.65 0 2.1-1.23 3.62-.507 5.503.58.652.362-.362 2.027-.941 1.665-1.16-.724-2.173-1.448-3.549-.58zM22.299 10.71c-3.549 2.1-3.983 2.1-7.604 0a2.303 2.303 0 0 0-2.535 0c-2.027 1.232-3.62 2.245-5.938.942-2.318-1.376-2.607-1.883-5.07-.362-.579.29-1.593-1.304-.941-1.666 3.114-1.883 3.91-1.376 6.952.362 1.521.87 2.752-.145 4.056-.941a4.382 4.382 0 0 1 4.417 0c2.97 1.738 2.825 1.738 5.65 0 2.1-1.231 3.62-.507 5.503.58.652.361-.362 2.027-.941 1.665-1.16-.724-2.173-1.449-3.549-.58zM22.299 19.111c-3.549 2.1-3.983 2.1-7.604 0a2.627 2.627 0 0 0-2.535 0c-2.027 1.231-3.62 2.318-5.938.942-2.318-1.376-2.607-1.883-5.07-.362-.579.362-1.593-1.304-.941-1.666 3.114-1.883 3.91-1.376 6.952.362 1.521.941 2.752-.145 4.056-.869 1.376-.869 3.041-.869 4.417-.072 2.97 1.738 2.825 1.738 5.65.072 2.1-1.231 3.62-.58 5.503.58.652.29-.362 1.955-.941 1.593-1.16-.652-2.173-1.376-3.549-.58z" fill="#000"></path></svg>